<?xml version="1.0" encoding="utf-8"?>
<!-- Generator: Adobe Illustrator 16.0.0, SVG Export Plug-In . SVG Version: 6.00 Build 0)  -->
<!DOCTYPE svg PUBLIC "-//W3C//DTD SVG 1.1//EN" "http://www.w3.org/Graphics/SVG/1.1/DTD/svg11.dtd">
<svg version="1.1" id="Layer_1" xmlns="http://www.w3.org/2000/svg" xmlns:xlink="http://www.w3.org/1999/xlink" x="0px" y="0px"
	 width="864px" height="576px" viewBox="0 0 864 576" enable-background="new 0 0 864 576" xml:space="preserve">
<g>
	<path fill-rule="evenodd" clip-rule="evenodd" d="M318.907,113.973c-0.911-0.762-1.717-1.305-2.355-2
		c-1.131-1.228-2.343-2.438-3.19-3.854c-1.527-2.552-1.238-4.524,0.655-6.834c0.604-0.738,1.242-1.448,2.004-2.333
		c-2.984-3.716-3.135-7.538,0.023-11.366c-1.741-1.645-3.895-2.879-3.639-5.658c0.228-2.474,2.261-3.771,3.578-5.777
		c-2.903-3.587-3.104-7.334-0.141-11.003c-1.127-3.733-1.309-7.395-0.175-11.074c0.047-0.151,0.223-0.333,0.181-0.433
		c-0.918-2.133,0.476-4.044,0.559-6.071c0.102-2.476,1.167-4.539,2.9-6.132c1.871-1.719,3.884-3.358,6.058-4.659
		c6.154-3.681,12.929-5.894,19.8-7.79c10.963-3.026,22.14-4.948,33.414-6.368c21.629-2.724,43.346-3.605,65.123-3.114
		c14.879,0.336,29.723,1.294,44.479,3.27c13.88,1.859,27.669,4.237,40.878,9.073c3.959,1.449,7.786,3.33,11.511,5.318
		c2.009,1.073,3.78,2.676,5.462,4.251c1.726,1.617,2.749,3.675,2.926,6.135c0.084,1.177,0.814,2.35,0.738,3.49
		c-0.213,3.175,1.083,6.225,0.611,9.4c-0.217,1.468-0.353,2.948-0.583,4.924c2.596,3.236,2.711,6.99-0.407,10.785
		c0.752,0.9,1.477,1.726,2.156,2.587c2.229,2.824,2.001,5.21-0.693,7.503c-0.363,0.31-0.732,0.618-1.075,0.951
		c-0.104,0.101-0.13,0.283-0.254,0.576c2.918,3.603,2.938,7.343-0.129,11.113c0.704,0.844,1.327,1.665,2.028,2.413
		c1.99,2.125,1.95,4.438,0.666,6.853c-1.114,2.096-2.831,3.651-4.711,5.044c-0.574,0.426-1.149,0.852-1.909,1.416
		c0.404,1.246,0.755,2.54,1.239,3.78c1.757,4.497,4.197,8.634,6.979,12.549c3.983,5.606,8.106,11.113,12.167,16.665
		c3.732,5.104,7.311,10.305,10.153,15.976c3.059,6.102,4.62,12.486,4.615,19.386c-0.063,93.997-0.077,187.993,0.007,281.989
		c0.01,10.051-1.883,19.59-6.276,28.541c-12.874,26.223-32.474,45.691-59.125,57.836c-8.097,3.689-16.671,5.285-25.634,5.262
		c-37.918-0.1-75.838-0.152-113.755,0.027c-11.151,0.053-21.612-2.256-31.426-7.334c-24.131-12.486-42.386-30.855-54.377-55.289
		c-4.504-9.176-6.532-18.908-6.522-29.209c0.086-94.076,0.063-188.152,0.021-282.228c-0.002-6.299,1.384-12.186,4.066-17.832
		c2.516-5.296,5.686-10.192,9.122-14.92c3.949-5.435,7.996-10.798,11.938-16.239c3.1-4.279,5.995-8.698,8.101-13.568
		C317.539,118.039,318.176,115.983,318.907,113.973z M328.202,118.667c-1.417,3.146-2.477,6.196-4.088,8.92
		c-2.926,4.949-6.053,9.79-9.329,14.515c-3.6,5.19-7.508,10.165-11.196,15.295c-2.896,4.03-5.524,8.237-7.519,12.804
		c-1.582,3.624-2.575,7.366-2.574,11.37c0.015,95.44,0.01,190.88,0.017,286.319c0,1.117,0.062,2.238,0.166,3.352
		c0.604,6.445,2.449,12.568,5.295,18.336c11.279,22.875,28.414,39.998,51.208,51.381c7.828,3.91,16.176,5.664,25.022,5.633
		c37.76-0.131,75.521-0.145,113.279,0.01c9.271,0.037,17.958-1.875,26.137-6.02c21.802-11.045,38.309-27.52,49.564-49.189
		c4.379-8.428,6.366-17.4,6.354-27.014c-0.114-93.441-0.101-186.88,0-280.32c0.007-6.642-1.443-12.695-4.835-18.267
		c-2.782-4.57-5.803-9.003-8.881-13.382c-4.001-5.691-8.246-11.211-12.23-16.914c-3.351-4.796-6.145-9.922-8.077-15.478
		c-0.1-0.285-0.308-0.531-0.489-0.834c-2.488,0.832-4.894,1.683-7.329,2.441c-12.945,4.029-26.25,6.33-39.662,8.037
		c-18.19,2.314-36.473,3.327-54.803,3.394c-15.925,0.058-31.819-0.673-47.671-2.263c-10.028-1.005-20.004-2.345-29.902-4.257
		C346.994,124.67,337.47,122.304,328.202,118.667z M540.274,101.304c-0.03-0.099-0.061-0.198-0.09-0.296
		c-0.526,0.1-1.06,0.173-1.577,0.304c-21.616,5.493-43.33,10.515-65.409,13.813c-11.95,1.786-23.947,3.111-36.027,3.502
		c-14.104,0.457-28.135-0.608-42.104-2.455c-14.276-1.887-28.355-4.813-42.315-8.331c-6.431-1.62-12.879-3.173-19.326-4.723
		c-1.515-0.364-3.062-0.52-4.665-0.008c0.701,0.558,1.444,0.946,2.235,1.162c3.621,0.991,7.248,1.968,10.889,2.887
		c14.021,3.539,28.053,7.035,42.066,10.601c2.084,0.53,4.107,1.313,6.131,2.054c0.596,0.218,1.369,0.43,1.468,1.571
		c-0.86,0.104-1.626,0.281-2.39,0.275c-2.558-0.021-5.129,0.042-7.67-0.195c-13.953-1.302-27.73-3.659-41.255-7.351
		c-5.084-1.388-10.087-3.07-15.135-4.593c-0.772-0.232-1.584-0.332-2.378-0.494c-0.05,0.172-0.1,0.345-0.15,0.518
		c1.061,0.493,2.084,1.104,3.188,1.46c5.625,1.813,11.21,3.791,16.919,5.292c28.294,7.441,57.163,10.672,86.346,11.373
		c16.815,0.404,33.571-0.549,50.265-2.637c14.854-1.858,29.546-4.559,43.907-8.804c6.041-1.786,11.925-4.11,17.855-6.257
		c1.144-0.414,2.311-0.952,3.021-2.181c-0.978-0.072-1.897,0.006-2.787,0.213c-14.239,3.322-28.456,6.736-42.72,9.949
		c-4.432,0.998-8.979,1.5-13.485,2.136c-1.045,0.147-2.238,0.36-3.397-0.837c0.747-0.532,1.355-1.138,2.09-1.45
		c1.393-0.592,2.832-1.107,4.296-1.492c5.022-1.32,10.057-2.599,15.1-3.84c11.643-2.865,23.259-5.816,34.492-10.077
		C538.542,102.061,539.403,101.669,540.274,101.304z M545.436,89.718c-0.069-0.24-0.139-0.479-0.208-0.719
		c-1.303-0.369-2.602-0.045-3.889,0.242c-9.195,2.053-18.36,4.251-27.587,6.15c-15.918,3.277-32.012,5.198-48.271,5.534
		c-7.111,0.147-14.232-0.082-21.338,0.158c-5.178,0.175-10.343,0.808-15.506,1.309c-1.055,0.103-2.209,0.301-2.938,1.739
		c0.828,0.434,1.529,0.953,2.314,1.184c1.836,0.537,3.692,1.048,5.574,1.371c14.854,2.552,29.73,2.592,44.633,0.385
		c14.078-2.085,28.005-4.921,41.723-8.684c7.077-1.941,14.039-4.307,21.023-6.572C542.521,91.313,543.949,90.427,545.436,89.718z
		 M420.759,67.748c0.013,0.206,0.025,0.413,0.038,0.619c0.521,0.124,1.036,0.317,1.564,0.36c2.31,0.186,4.622,0.41,6.937,0.473
		c11.744,0.322,23.49,0.618,35.235,0.885c20.761,0.471,41.356-1.302,61.816-4.739c3.141-0.527,6.229-1.384,9.323-2.165
		c0.864-0.218,1.898-0.396,2.264-1.819c-0.778-0.274-1.476-0.651-2.21-0.751c-1.657-0.225-3.343-0.505-5.001-0.425
		c-7.898,0.384-15.802,0.754-23.685,1.367c-11.791,0.915-23.558,2.143-35.35,3.025c-12.191,0.912-24.401,1.577-36.604,2.336
		C430.313,67.21,425.535,67.471,420.759,67.748z M424.177,86.536c-0.011,0.253-0.022,0.507-0.033,0.761
		c2.652,0.387,5.295,0.859,7.957,1.146c6.991,0.754,13.978,1.608,20.988,2.087c8.766,0.6,17.555,1.201,26.332,1.19
		c11.354-0.014,22.651-1.327,33.892-2.924c6.88-0.977,13.745-2.113,20.399-4.183c2.198-0.684,4.306-1.675,6.417-2.609
		c0.483-0.214,0.813-0.775,1.212-1.176c-0.067-0.157-0.136-0.314-0.204-0.472c-1.008-0.035-2.024-0.172-3.022-0.086
		c-4.457,0.38-8.916,0.753-13.359,1.258c-8.572,0.976-17.121,2.186-25.707,3.028c-10.813,1.061-21.644,2.019-32.486,2.708
		c-9.732,0.619-19.488,0.619-29.234-0.073C432.95,86.879,428.561,86.749,424.177,86.536z M423.46,76.296
		c-0.531-0.087-1.06-0.219-1.594-0.256c-7.26-0.495-14.532-0.852-21.779-1.496c-8.199-0.729-16.42-1.431-24.554-2.654
		c-11.296-1.699-22.519-3.88-33.775-5.837c-2.64-0.459-5.292-0.849-7.938-1.27c-0.023,0.175-0.048,0.35-0.072,0.525
		C362.827,75.522,392.827,78.604,423.46,76.296z M335.771,85.056c-0.109,0.163-0.219,0.327-0.328,0.49
		c0.988,0.488,1.943,1.063,2.969,1.452c8.207,3.119,16.36,6.398,24.668,9.227c5.119,1.743,10.414,3.174,15.744,4.039
		c7.4,1.2,14.897,1.855,22.373,2.512c4.529,0.398,9.098,0.373,13.649,0.503c0.727,0.021,1.458-0.144,2.188-0.223
		c-0.011-0.187-0.022-0.374-0.034-0.561c-2.102-0.186-4.199-0.414-6.304-0.549c-10.616-0.68-21.139-2.045-31.57-4.141
		c-11.851-2.381-23.366-5.905-34.739-9.949C341.542,86.846,338.644,85.986,335.771,85.056z"/>
</g>
</svg>
